<svg width="32" height="32" viewBox="0 0 32 32" fill="none" xmlns="http://www.w3.org/2000/svg">
<rect width="32" height="32" rx="8" fill="#00C300"/>
<path d="M16 8C10.5 8 6 11.58 6 16.05C6 18.7 7.98 21.02 10.93 22.31C10.7 23.15 10.09 25.28 10.06 25.41C10.01 25.63 10.13 25.73 10.31 25.73C10.39 25.73 10.44 25.7 10.51 25.66C10.62 25.6 13.25 24.03 14.1 23.5C14.71 23.56 15.35 23.6 16 23.6C21.5 23.6 26 20.02 26 15.55C26 11.58 21.5 8 16 8ZM12.54 17.22H11.23C11.11 17.22 11.01 17.12 11.01 17V13.96C11.01 13.84 11.11 13.74 11.23 13.74H12.54C13.94 13.74 14.45 14.52 14.45 15.47C14.45 16.41 13.94 17.22 12.54 17.22ZM17.18 17.21C17.07 17.21 16.97 17.11 16.97 16.99V13.95C16.97 13.83 17.07 13.73 17.18 13.73C17.29 13.73 17.39 13.83 17.39 13.95V16.99C17.39 17.11 17.29 17.21 17.18 17.21ZM20.77 17.22H19.46C18.06 17.22 17.55 16.44 17.55 15.49C17.55 14.55 18.06 13.74 19.46 13.74H20.77C20.89 13.74 20.99 13.84 20.99 13.96V17C20.99 17.12 20.89 17.22 20.77 17.22ZM15.01 17.21C14.9 17.21 14.8 17.11 14.8 16.99V13.95C14.8 13.83 14.9 13.73 15.01 13.73C15.12 13.73 15.22 13.83 15.22 13.95V16.99C15.22 17.11 15.12 17.21 15.01 17.21ZM12.54 15.97H11.46V16.75H12.54C13.37 16.75 13.37 15.97 12.54 15.97ZM12.54 14.21H11.46V15.02H12.54C13.37 15.02 13.37 14.21 12.54 14.21ZM19.46 14.21C18.63 14.21 18.63 15.02 19.46 15.02H20.54V14.21H19.46ZM20.54 16.75V15.97H19.46C18.63 15.97 18.63 16.75 19.46 16.75H20.54ZM16 25.6C15.34 25.6 14.68 25.56 14.03 25.49C13.21 26.01 10.78 27.41 10.55 27.54C10.36 27.65 10.11 27.7 9.9 27.62C9.44 27.45 9.15 27.01 9.27 26.56C9.29 26.47 9.98 24.03 10.23 23.18C7.13 21.75 5 19.06 5 16.05C5 10.91 10.03 7 16 7C21.97 7 27 10.91 27 16.05C27 20.04 22.97 23.6 16 23.6C15.99 23.6 15.99 23.6 16 23.6Z" fill="white"/>
</svg>
